<?xml version="1.0" encoding="UTF-8"?>
<svg id="Layer_2" data-name="Layer 2" xmlns="http://www.w3.org/2000/svg" viewBox="0 0 673.12 233.58">
  <defs>
    <style>
      .cls-1 {
        fill: #fff;
      }

      .cls-2 {
        fill: #0074ff;
      }
    </style>
  </defs>
  <g id="Layer_1-2" data-name="Layer 1">
    <g>
      <g>
        <path class="cls-1" d="M188.7,121.2c-6.13,7.12-15.56,12.25-28.64,12.25-18.54,0-26.49-11.76-26.49-25.83v-1.66c0-19.04,13.58-25,30.63-27.49l22.35-3.48v-.33c0-11.09-3.48-16.56-14.57-16.56-11.92,0-14.57,6.79-14.57,14.4h-20.53v-1.49c0-14.74,7.62-29.64,35.6-29.64s35.6,12.75,35.6,33.28v31.79l1.32,24.84h-19.04l-1.66-10.1Zm-2.15-14.57v-18.54l-18.38,2.98c-9.11,1.49-13.08,5.8-13.08,12.58v1.32c0,5.46,3.64,10.76,12.42,10.76,10.1,0,16.23-5.3,19.04-9.11Z"/>
        <path class="cls-1" d="M275.26,131.3v-56.63c0-8.44-4.14-14.57-13.91-14.57s-15.73,5.96-18.21,10.1v61.1h-21.52v-62.92l-1.49-24.84h19.04l1.99,11.59c5.46-7.95,14.57-13.74,28.48-13.74,19.21,0,26.99,13.91,26.99,29.8v60.1h-21.36Z"/>
        <path class="cls-1" d="M364.48,117.72c-4.97,5.96-12.42,10.1-23.35,10.1-23.51,0-32.95-16.89-32.95-41.06v-4.31c0-23.01,9.44-41.06,32.95-41.06,12.58,0,20.53,5.46,25.33,12.91l1.82-10.76h19.04l-1.32,24.84v61.92c0,23.01-11.92,36.26-38.58,36.26-28.15,0-37.58-14.41-37.58-32.12v-3.15h20.37c0,10.93,3.97,17.55,16.72,17.55s17.55-5.46,17.55-18.88v-12.25Zm0-47.52c-2.65-4.14-8.11-10.1-17.39-10.1-11.59,0-17.38,8.94-17.38,22.35v4.31c0,14.4,5.79,22.35,17.38,22.35,9.27,0,14.74-5.96,17.39-9.93v-28.98Z"/>
        <path class="cls-1" d="M398.38,0h21.52V131.3h-21.52V0Z"/>
        <path class="cls-2" d="M508.91,90.07v-5.3c0-25.17,12.25-43.38,39.74-43.38s39.74,18.21,39.74,43.38v5.3c0,25-12.25,43.38-39.74,43.38s-39.74-18.38-39.74-43.38Zm57.95,0v-5.3c0-15.23-5.63-24.67-18.21-24.67s-18.21,9.44-18.21,24.67v5.3c0,15.07,5.63,24.5,18.21,24.5s18.21-9.44,18.21-24.5Z"/>
        <path class="cls-2" d="M651.76,131.3v-56.63c0-8.44-4.14-14.57-13.91-14.57s-15.73,5.96-18.21,10.1v61.1h-21.52v-62.92l-1.49-24.84h19.04l1.99,11.59c5.46-7.95,14.57-13.74,28.48-13.74,19.21,0,26.99,13.91,26.99,29.8v60.1h-21.36Z"/>
        <polygon class="cls-1" points="488.58 43.55 469.21 104.48 450.01 43.55 426.66 43.55 456.05 122.75 459.35 122.75 453.17 138.1 453.17 138.1 441.88 166.25 467.38 166.25 480.8 126.99 511.76 43.55 488.58 43.55"/>
        <path class="cls-1" d="M105.39,67.74H61.38v19.74h40.86c-1.03,16.51-16.01,27.68-35.94,27.68-23.41,0-42.5-17.9-42.5-46.83S42.3,19.73,67.29,19.73c19.87,0,35.61,10.43,35.61,28.72,0,1.77,0,3.93-.2,6.3h21.05c.2-2.36,.39-5.51,.39-7.67C124.15,17.57,99.55,.06,66.89,.06,28.72,.06,0,26.62,0,68.13s27.35,65.32,64.34,65.32c21.89,0,35.98-8.8,41.06-22v20.03h19.74v-63.75h-19.74Z"/>
      </g>
      <g>
        <path class="cls-1" d="M288.55,178.08h1.47v54.59h-1.4v-39.27l.21-12.11-19.11,51.37h-1.4l-19.11-51.37,.21,12.11v39.27h-1.4v-54.59h1.47l19.53,52.63,19.53-52.63Z"/>
        <path class="cls-1" d="M301.23,195.58v26.25c0,7.35,3.5,9.87,9.87,9.87,6.72,0,10.64-3.5,12.53-6.51v-29.61h1.4v28.7l.35,8.4h-1.05l-.56-5.67c-2.03,2.94-6.02,6.09-12.81,6.09-7.21,0-11.13-3.43-11.13-10.92v-26.6h1.4Z"/>
        <path class="cls-1" d="M358.62,222.88c0-6.44-4.06-7.84-12.6-8.54-9.8-.98-12.25-4.13-12.25-9.1v-.42c0-5.74,4.83-9.66,12.95-9.66,9.66,0,12.95,5.25,12.95,12.04v.28h-1.4c0-6.65-2.66-10.92-11.55-10.92-7.07,0-11.55,3.08-11.55,8.47,0,4.97,2.31,7.28,12.25,8.19,9.38,.84,12.6,3.22,12.6,9.45v.42c0,5.95-4.97,10.01-13.3,10.01-10.5,0-13.3-5.88-13.3-11.34v-.28h1.4c0,5.25,2.38,10.22,11.9,10.22,7.35,0,11.9-3.36,11.9-8.82Z"/>
        <path class="cls-1" d="M382.28,195.16c9.52,0,12.74,6.72,12.74,12.67v.7h-1.4c0-6.72-3.22-11.97-11.34-11.97-9.1,0-13.51,6.72-13.51,16.87v1.4c0,10.15,4.41,16.87,13.51,16.87,8.19,0,11.34-4.83,11.34-11.27h1.4v.7c0,5.67-3.15,11.97-12.74,11.97-10.43,0-14.91-7.77-14.91-18.27v-1.4c0-10.5,4.48-18.27,14.91-18.27Z"/>
        <path class="cls-1" d="M404.47,176.68h1.4v55.99h-1.4v-55.99Z"/>
        <path class="cls-1" d="M416.72,214.83c0,9.8,4.13,16.87,13.65,16.87s12.95-5.95,12.95-10.92h1.4v.35c0,5.25-4.06,11.97-14.35,11.97s-15.05-8.05-15.05-18.27v-1.4c0-10.22,4.34-18.27,14.7-18.27s14.7,8.05,14.7,18.27v1.4h-28Zm0-1.4h26.6c0-9.87-4.27-16.87-13.3-16.87s-13.3,7-13.3,16.87Z"/>
        <path class="cls-1" d="M482.94,232.67h-9.38l-11.62-38.29,.28,11.27v27.02h-9.38v-54.59h13.79l11.62,38.36,11.69-38.36h13.79v54.59h-9.38v-27.02l.28-11.27-11.69,38.29Z"/>
        <path class="cls-1" d="M533.68,228.4c-2.59,3.01-6.58,5.18-12.11,5.18-7.84,0-11.2-4.97-11.2-10.92v-.7c0-8.05,5.74-10.57,12.95-11.62l9.45-1.47v-.14c0-4.69-1.47-7-6.16-7-5.04,0-6.16,2.87-6.16,6.09h-8.68v-.63c0-6.23,3.22-12.53,15.05-12.53s15.05,5.39,15.05,14.07v13.44l.56,10.5h-8.05l-.7-4.27Zm-.91-6.16v-7.84l-7.77,1.26c-3.85,.63-5.53,2.45-5.53,5.32v.56c0,2.31,1.54,4.55,5.25,4.55,4.27,0,6.86-2.24,8.05-3.85Z"/>
        <path class="cls-1" d="M570.43,221.9c0-3.22-1.82-4.34-7.07-4.76-10.29-.84-14.28-3.71-14.28-10.22v-.56c0-7.91,6.23-11.69,14.98-11.69,10.64,0,15.05,4.97,15.05,12.67v.35h-8.89c0-3.71-1.68-5.95-6.16-5.95-3.85,0-6.02,1.68-6.02,4.41s1.33,4.06,6.79,4.48c9.31,.77,14.7,2.94,14.7,10.43v.49c0,7.35-5.25,12.04-15.47,12.04s-15.47-5.53-15.47-12.25v-.28h9.03c0,3.01,1.54,5.46,6.44,5.46,4.34,0,6.37-1.89,6.37-4.62Z"/>
        <path class="cls-1" d="M608.3,195.58v7.98h-10.29v16.03c0,4.97,2.24,6.02,6.02,6.02,1.33,0,3.15-.28,3.57-.49v7.56c-.56,.28-2.45,.91-5.74,.91-7.63,0-12.95-3.43-12.95-13.02v-17.01h-5.67v-7.98h5.67v-10.5h9.1v10.5h10.29Z"/>
        <path class="cls-1" d="M622.72,217.49c.35,6.09,3.15,9.03,8.33,9.03s7.56-2.94,7.56-5.74h8.61v.28c0,6.65-5.6,12.53-16.24,12.53-11.97,0-17.36-7.98-17.36-18.55v-1.82c0-10.57,5.53-18.55,17.01-18.55s16.59,7.98,16.59,18.55v4.27h-24.5Zm0-6.72h15.33c-.28-5.88-2.66-9.03-7.63-9.03s-7.35,3.15-7.7,9.03Z"/>
        <path class="cls-1" d="M673.12,194.74v8.82h-1.54c-4.9,0-7.49,2.24-8.61,3.92v25.2h-9.1v-26.6l-.63-10.5h8.05l.77,4.48c2.1-3.08,5.46-5.39,10.01-5.39,.42,0,.84,.07,1.05,.07Z"/>
      </g>
    </g>
  </g>
</svg>